<svg width="242" height="200" xmlns="http://www.w3.org/2000/svg"><g fill="none" fillRule="evenodd"><path d="M121 200c66.827 0 121-54.173 121-121S187.827-42 121-42 0 12.173 0 79s54.173 121 121 121z" fill="#F9FAFE" opacity=".05"/><path d="M121 161c44.735 0 81-36.265 81-81s-36.265-81-81-81-81 36.265-81 81 36.265 81 81 81z" fill="#F9FAFE" opacity=".05"/><path d="M121 121c22.091 0 40-17.909 40-40s-17.909-40-40-40-40 17.909-40 40 17.909 40 40 40z" fill="#F9FAFE" opacity=".05"/><path d="M117.844 71.016l10.546 10.547-10.546 10.547" stroke="#7C5DFA" strokeWidth="2"/><path d="M113.313 121V71.016l15.077 15.078" stroke="#7C5DFA" strokeWidth="2"/></g></svg>
